<svg id="svg-logo" viewBox="0 0 581.3 465.5" width="100%" height="100%">
  <path d="M380.2,0H176.3c-7.2,0-14.1,3.1-18.9,8.5L3.2,183c-7.2,8.2-1.4,21,9.5,21h203.9c7.2,0,14.1-3.1,18.9-8.5L389.7,21C396.9,12.9,391.1,0,380.2,0z M212.2,153H90.5l90.1-102h121.7L212.2,153z"></path>
  <path d="M3.2,284l152.8,173c4.8,5.4,11.7,8.5,18.9,8.5h203.9c10.9,0,16.7-12.9,9.5-21l-152.8-173c-4.8-5.4-11.7-8.5-18.9-8.5H12.7C1.8,263-4,275.8,3.2,284z"></path>
  <path d="M435.1,56.3L411.6,83c-3.9,4.5-4.2,11.1-0.7,15.9l74.5,100.6h-161c-3,0-5.9,1.1-8.2,3l-25.6,21.6c-5.9,5-6,14-0.2,19.1l25.8,22.7c2.3,2,5.3,3.2,8.4,3.2h160.2l-75.3,97.3c-3.7,4.8-3.5,11.6,0.5,16.1l23.5,26.5c5.3,6,14.8,5.6,19.6-0.8l125.5-167.9c3.3-4.5,3.4-10.6,0-15.1l-124-168C450,50.7,440.5,50.2,435.1,56.3z"></path>
</svg>
